<?xml version="1.0" standalone="no"?>
<!DOCTYPE svg PUBLIC "-//W3C//DTD SVG 20010904//EN"
 "http://www.w3.org/TR/2001/REC-SVG-20010904/DTD/svg10.dtd">
<svg version="1.0" xmlns="http://www.w3.org/2000/svg"
 width="1029.000000pt" height="142.000000pt" viewBox="0 0 1029.000000 142.000000"
 preserveAspectRatio="xMidYMid meet">

<g transform="translate(0.000000,142.000000) scale(0.100000,-0.100000)"
fill="#fff" stroke="none">
<path d="M953 962 l-63 -37 0 -242 0 -243 70 0 70 0 0 280 c0 154 -3 280 -7
280 -5 -1 -36 -18 -70 -38z"/>
<path d="M5323 962 l-63 -37 0 -97 0 -98 -145 0 -145 0 0 95 0 95 -70 0 -70 0
0 -240 0 -240 70 0 70 0 0 95 0 95 145 0 145 0 0 -95 0 -95 70 0 70 0 0 280
c0 154 -3 280 -7 280 -5 -1 -36 -18 -70 -38z"/>
<path d="M3532 878 c-78 -108 -75 -94 -37 -147 l34 -46 -34 -47 -34 -47 53
-73 52 -73 200 -2 199 -3 53 75 53 74 -30 45 c-17 25 -31 47 -31 51 0 4 14 26
31 51 l30 45 -53 74 -53 75 -197 0 -197 0 -39 -52z m367 -82 c11 -19 10 -27 0
-45 -13 -19 -22 -21 -131 -21 -115 0 -118 1 -134 25 -16 24 -16 27 1 45 16 18
31 20 135 20 112 0 117 -1 129 -24z m-1 -186 c9 -15 10 -26 2 -40 -10 -18 -21
-20 -129 -20 -105 0 -120 2 -136 20 -17 19 -17 21 0 40 16 18 31 20 134 20
106 0 117 -2 129 -20z"/>
<path d="M4222 878 c-78 -108 -75 -94 -37 -147 l34 -46 -34 -47 -34 -47 53
-73 52 -73 200 -2 199 -3 53 75 53 74 -30 45 c-17 25 -31 47 -31 51 0 4 14 26
31 51 l30 45 -53 74 -53 75 -197 0 -197 0 -39 -52z m367 -82 c11 -19 10 -27 0
-45 -13 -19 -22 -21 -131 -21 -115 0 -118 1 -134 25 -16 24 -16 27 1 45 16 18
31 20 135 20 112 0 117 -1 129 -24z m-1 -186 c9 -15 10 -26 2 -40 -10 -18 -21
-20 -129 -20 -105 0 -120 2 -136 20 -17 19 -17 21 0 40 16 18 31 20 134 20
106 0 117 -2 129 -20z"/>
<path d="M317 862 l-57 -58 0 -124 0 -124 57 -58 57 -58 166 0 166 0 52 53 52
53 0 92 0 92 -167 0 -167 0 49 -50 c45 -46 53 -50 97 -50 l48 0 0 -40 0 -40
-135 0 -135 0 0 130 0 130 163 0 164 0 52 55 53 55 -229 0 -229 0 -57 -58z"/>
<path d="M1172 868 l45 -53 77 -3 76 -3 0 -184 0 -183 64 -36 c35 -20 67 -36
70 -36 3 0 6 99 6 220 l0 220 74 0 74 0 47 55 47 55 -313 0 -312 0 45 -52z"/>
<path d="M5537 862 l-57 -58 0 -177 0 -177 48 0 c26 0 57 -3 70 -6 21 -6 22
-4 22 65 l0 71 150 0 149 0 3 -72 3 -71 60 -33 c33 -19 63 -34 68 -34 4 0 7
98 7 218 l0 218 -58 57 -58 57 -175 0 -175 0 -57 -58z m383 -112 l0 -60 -150
0 -150 0 0 60 0 60 150 0 150 0 0 -60z"/>
<path d="M6192 868 l45 -53 77 -3 76 -3 0 -184 0 -183 64 -36 c35 -20 67 -36
70 -36 3 0 6 99 6 220 l0 220 74 0 74 0 47 55 47 55 -313 0 -312 0 45 -52z"/>
<path d="M6820 680 l0 -240 223 0 223 0 54 55 54 55 -207 0 -207 0 0 40 0 40
133 0 134 0 47 50 47 50 -180 0 -181 0 0 40 0 40 163 0 164 0 52 55 53 55
-286 0 -286 0 0 -240z"/>
<path d="M7497 862 l-57 -58 0 -124 0 -124 57 -58 57 -58 166 0 166 0 54 55
54 55 -207 0 -207 0 0 130 0 130 163 0 164 0 52 55 53 55 -229 0 -229 0 -57
-58z"/>
<path d="M8097 862 l-57 -58 0 -124 0 -124 57 -58 57 -58 196 0 196 0 52 53
52 53 0 135 0 135 -53 52 -53 52 -195 0 -195 0 -57 -58z m413 -182 l0 -130
-165 0 -165 0 0 130 0 130 165 0 165 0 0 -130z"/>
<path d="M8730 680 l0 -240 70 0 70 0 0 80 0 80 143 0 c172 0 177 -3 177 -96
l0 -59 66 -37 c36 -21 70 -38 75 -38 5 0 9 46 9 103 l0 103 -40 39 c-22 21
-40 43 -40 48 0 4 16 29 35 54 19 25 35 50 35 56 0 5 -23 40 -51 78 l-51 69
-249 0 -249 0 0 -240z m443 105 c17 -24 17 -26 0 -50 -18 -24 -21 -24 -160
-25 l-143 0 0 50 0 50 143 0 c139 -1 142 -1 160 -25z"/>
<path d="M9410 680 l0 -240 223 0 223 0 54 55 54 55 -207 0 -207 0 0 40 0 40
133 0 134 0 47 50 47 50 -180 0 -181 0 0 40 0 40 163 0 164 0 52 55 53 55
-286 0 -286 0 0 -240z"/>
<path d="M2220 665 l0 -55 370 0 370 0 0 55 0 55 -370 0 -370 0 0 -55z"/>
</g>
</svg>
